<?xml version="1.0" encoding="utf-8"?>
<!-- Generator: Adobe Illustrator 18.1.1, SVG Export Plug-In . SVG Version: 6.00 Build 0)  -->
<svg version="1.1" id="Слой_1" xmlns="http://www.w3.org/2000/svg" xmlns:xlink="http://www.w3.org/1999/xlink" x="0px" y="0px"
	 width="1552px" height="258px" viewBox="478 169.3 1552 258" enable-background="new 478 169.3 1552 258" xml:space="preserve">
<g>
	<g id="color_22_">
		<g>
			<path fill="#5BBA47" d="M866.1,173.2c-68,0-128.3,53.3-136.4,123c-8.2,70.4,38,118.4,105.7,121.8c68,3.3,130.3-52.4,138.7-120.8
				C982.5,228.7,934.1,173.2,866.1,173.2z"/>
		</g>
	</g>
	<g>
		<path fill="none" stroke="#070808" stroke-width="17" stroke-miterlimit="10" d="M934.5,207.3c-17.7-16.1-42.7-25.7-70.2-25.7"/>
		<path fill="none" stroke="#070808" stroke-width="17" stroke-miterlimit="10" d="M736.7,296.2c7.8-63.3,65.3-114.6,128.6-114.6"/>
		<path fill="none" stroke="#070808" stroke-width="17" stroke-miterlimit="10" d="M837.6,410.8c-63.3,0-108.6-51.7-100.8-115"/>
		<path fill="none" stroke="#070808" stroke-width="17" stroke-linecap="round" stroke-miterlimit="10" d="M965.8,296.2
			c-7.8,63.3-65.3,114.6-128.6,114.6"/>
		<g id="outline_21_">
			<path fill="#070808" stroke="#070808" stroke-miterlimit="10" d="M943.5,207.1l-3.8-33.4c-0.4-3.1-3.2-5-6.4-4.3
				c-3.2,0.7-5.4,3.8-5.1,6.8l2.3,19.7c-1-0.8-2.1-1.6-3.1-2.3l-7.5,10.1c1,0.7,2,1.5,3,2.2l0,0l-20,4.4c-3.2,0.7-5.4,3.8-5.1,6.8
				c0.4,3.1,3.2,5,6.4,4.3l34.4-7.6C941.5,213.2,943.8,210.2,943.5,207.1z"/>
		</g>
		<path fill="#070808" stroke="#070808" stroke-miterlimit="10" d="M972.8,274.5c-0.4,3.5-3.6,6.4-7.2,6.4c-3.5,0-6-2.9-5.6-6.4
			c0.4-3.5,3.6-6.4,7.2-6.4C970.8,268.1,973.2,271,972.8,274.5z"/>
		<path fill="#070808" stroke="#070808" stroke-miterlimit="10" d="M969.8,256.8c-0.4,3.5-3.6,6.4-7.2,6.4c-3.5,0-6-2.9-5.6-6.4
			c0.4-3.5,3.6-6.4,7.2-6.4C967.8,250.4,970.3,253.3,969.8,256.8z"/>
		<path fill="#070808" stroke="#070808" stroke-miterlimit="10" d="M964.8,240.5c-0.4,3.5-3.6,6.4-7.2,6.4c-3.5,0-6-2.9-5.6-6.4
			c0.4-3.5,3.6-6.4,7.2-6.4C962.8,234.1,965.3,237,964.8,240.5z"/>
		<path fill="#070808" stroke="#070808" stroke-miterlimit="10" d="M955.7,224.8c-0.4,3.5-3.6,6.4-7.2,6.4s-6-2.9-5.6-6.4
			c0.4-3.5,3.6-6.4,7.2-6.4C953.7,218.4,956.1,221.3,955.7,224.8z"/>
		
			<polyline fill="none" stroke="#070808" stroke-width="16" stroke-linecap="round" stroke-linejoin="round" stroke-miterlimit="10" points="
			810.7,240.5 854.5,317.1 910.6,292.9 		"/>
	</g>
</g>
<g>
	<path fill="#070808" d="M680.6,418h-41l19.2-108.2H547.7l-19,108.2h-41.3l43.1-245.1h41.3L554.5,271h111.2l17.4-98.1h41L680.6,418z
		"/>
</g>
<g>
	<path fill="#070808" d="M1076.5,425.3c-26.3,0-46.1-6.8-59.3-20.5c-13.2-13.6-19.8-32.9-19.8-57.8c0-10.5,0.9-20.9,2.7-31.2
		l25-140.6h41l-22,125.1c-2.4,13.1-3.5,25.1-3.5,36c0.2,15.9,3.6,28.2,10,37c6.4,8.8,17.3,13.2,32.7,13.2c8.9,0,16.9-1.6,24-4.7
		c7.1-3.1,13.1-7.2,17.9-12.2s9-11.4,12.7-19.1s6.7-15.5,9.1-23.3c2.3-7.8,4.3-16.8,5.9-26.8l21.9-125.2h41.3l-24.8,140.5
		c-6,34.3-18.8,61.1-38.4,80.5C1133.4,415.6,1107.9,425.3,1076.5,425.3z"/>
	<path fill="#070808" d="M1400.9,420.3h-44.1l-30.8-92.5h-43.3l-16.2,92.5h-41.3l43-245.1h83.2c45.4,0,68.1,19.2,68.1,57.5
		c0,36.2-17.6,64.3-52.9,84.4L1400.9,420.3z M1337.3,208.7h-33.7l-14.1,80.3h32.7c36.2,0,54.2-16.1,54.2-48.2
		c0-10.8-2.8-18.9-8.4-24.2C1362.5,211.4,1352.2,208.7,1337.3,208.7z"/>
</g>
<g>
	<path fill="#070808" d="M1498.6,298.6c11.6,0,20.6,2.4,26.9,7.1c6.3,4.7,9.4,10.6,9.4,17.6c0,4.5-1.2,8.1-3.7,10.9
		s-5.5,4.2-9.1,4.2c-3.3,0-6.1-1.1-8.4-3.4s-3.4-5-3.4-8.3c0-2.1,0.9-4.4,2.6-7c1.4-1.9,2.1-3.3,2.1-4.4c0-2.1-1.4-4-4.1-5.8
		c-2.7-1.7-6.8-2.6-12.3-2.6c-8.5,0-15.2,2.2-20.3,6.7s-7.6,9.8-7.6,16.1c0,4.3,1.5,7.8,4.4,10.4s10.7,5.9,23.3,9.9
		c11,3.4,18.6,7.6,22.8,12.5c4.2,5,6.2,10.9,6.2,17.9c0,10.6-4.6,19.9-13.7,27.8s-21,11.8-35.6,11.8c-12.6,0-22.4-2.7-29.3-8.2
		c-6.9-5.5-10.4-12.3-10.4-20.4c0-5,1.4-9,4.1-12c2.7-3.1,6-4.6,9.9-4.6c3.5,0,6.4,1.1,8.7,3.4c2.3,2.3,3.4,5.1,3.4,8.4
		c0,1.6-0.3,3.1-0.9,4.4c-0.6,1.3-1.9,2.9-4,4.9c-1.8,1.8-2.7,3.5-2.7,5c0,2.8,1.9,5.3,5.6,7.7c3.7,2.4,9.1,3.5,16.1,3.5
		c9,0,16.3-2.4,21.9-7.1c5.7-4.8,8.5-10.4,8.5-17c0-4.7-1.5-8.6-4.5-11.6c-3.1-3-9.7-6.1-19.9-9.4c-12.2-3.9-20.3-8-24.2-12.3
		c-4-4.3-6-9.7-6-16.2c0-10.6,4.3-19.8,12.9-27.8C1475.8,302.6,1486.3,298.6,1498.6,298.6z"/>
	<path fill="#070808" d="M1594,262.8h19.9l-10.7,39.4h22.1l-3.1,10.3h-21.5l-19.9,75.2c-1.1,4.3-1.7,8-1.7,11.2c0,3,0.6,5.3,1.9,6.9
		s2.9,2.3,4.8,2.3c8.2,0,18.3-10.5,30.2-31.6l6.7,3.8c-13.9,26.5-28.7,39.8-44.4,39.8c-5.9,0-10.5-1.8-13.8-5.4
		c-3.4-3.6-5-8.3-5-14.1c0-5,0.7-10.2,2.2-15.7l19.2-72.4h-20.6l3-10.3h20.3L1594,262.8z"/>
	<path fill="#070808" d="M1702.6,298.6c12.5,0,23.2,4.7,31.9,14c8.7,9.3,13.1,21.1,13.1,35.5c0,12.4-3.1,24.4-9.3,35.9
		c-6.2,11.6-14.2,20.5-24,26.7c-9.8,6.2-19.9,9.3-30.4,9.3c-12.5,0-23.3-4.7-32.2-14.2c-8.9-9.5-13.4-21.3-13.4-35.6
		c0-11.9,3.2-23.6,9.5-35.2c6.3-11.6,14.5-20.5,24.4-26.9C1682.1,301.8,1692.2,298.6,1702.6,298.6z M1703.1,306.9
		c-6.1,0-12.3,2.6-18.5,7.8c-6.2,5.2-11.8,14.2-16.8,27.2c-5,12.9-7.5,25.9-7.5,38.8c0,10,2.2,17.7,6.5,23.1
		c4.3,5.4,9.8,8.1,16.5,8.1c6.3,0,12.5-2.5,18.6-7.6c6-5,11.6-14.3,16.7-27.6c5.1-13.3,7.7-26.5,7.7-39.4c0-9.5-2.2-16.9-6.5-22.3
		C1715.2,309.6,1709.7,306.9,1703.1,306.9z"/>
	<path fill="#070808" d="M1789.2,416.4l-20.3,1.6l20.7-78.4c2.2-8.4,3.4-14.1,3.4-17.2c0-3.9-1.2-6.9-3.7-8.8c-2.5-2-6.5-3-12.1-3
		h-5.4l2.6-8.4l40.3-2.2l-11.5,49.3c7.3-16.8,13-28.2,17-33.9c4-5.8,8.4-10,13.1-12.7c4.7-2.7,9.3-4,13.9-4c5.5,0,10,1.7,13.7,5.1
		c3.7,3.4,5.5,7.7,5.5,12.7c0,4.7-1.3,8.5-3.8,11.4c-2.6,2.9-5.7,4.3-9.5,4.3c-3,0-5.6-1.1-7.7-3.2s-3.2-4.7-3.2-7.7
		c0-1.2,0.4-2.9,1.2-5c0.5-1.3,0.7-2.4,0.7-3.2c0-1.1-0.3-2-0.9-2.6s-1.5-0.9-2.7-0.9c-2.2,0-4.7,1.2-7.6,3.5
		c-5.4,4.6-10.7,12.8-15.9,24.5c-9.4,21.2-16.1,38.5-20,51.6L1789.2,416.4z"/>
	<path fill="#070808" d="M1897.6,372c-0.4,3.8-0.6,7-0.6,9.6c0,9,2.2,15.8,6.5,20.6c4.4,4.8,10.3,7.1,17.8,7.1
		c5.9,0,11.6-1.5,17.3-4.6c5.7-3.1,12.8-9.2,21.4-18.4l5.6,5.1c-15.4,19-31.7,28.4-48.8,28.4c-11.7,0-21.6-4.4-29.7-13.2
		c-8.1-8.8-12.1-20-12.1-33.7c0-12,3.4-23.9,10.1-35.5c6.8-11.6,15.8-21,27-28.2c11.3-7.2,21.8-10.8,31.6-10.8
		c8.4,0,15.2,2.4,20.6,7.3c5.3,4.8,8,10.8,8,17.8c0,5.9-2.1,11.9-6.3,17.8c-4.2,5.9-10.9,11.2-20.3,15.8S1920.4,366.8,1897.6,372z
		 M1899.3,364.1c15.5-3.4,26.6-7,33.2-10.6c6.6-3.7,11.6-8.2,15-13.7s5.1-11.2,5.1-17.3c0-4.8-1.2-8.6-3.7-11.3
		c-2.5-2.7-5.9-4-10.2-4c-7.8,0-15.4,4.5-22.6,13.4C1908.7,329.5,1903.2,344,1899.3,364.1z"/>
</g>
</svg>
